<svg xmlns="http://www.w3.org/2000/svg" xmlns:xlink="http://www.w3.org/1999/xlink" width="1537" zoomAndPan="magnify" viewBox="0 0 1152.75 1152.749944" height="1537" preserveAspectRatio="xMidYMid meet" version="1.0"><defs><clipPath id="5f2945dd06"><path d="M 89.585938 29.042969 L 1062.914062 29.042969 L 1062.914062 1123.492188 L 89.585938 1123.492188 Z M 89.585938 29.042969 " clip-rule="nonzero"/></clipPath></defs><g clip-path="url(#5f2945dd06)"><path fill="#ffffff" d="M 1050.152344 302.65625 C 1023.894531 257.175781 965.738281 241.59375 920.257812 267.851562 C 886.316406 287.445312 696.828125 424.230469 613.769531 511.28125 C 647.628906 395.828125 671.339844 163.332031 671.339844 124.140625 C 671.339844 71.617188 628.761719 29.050781 576.25 29.050781 C 523.734375 29.050781 481.160156 71.617188 481.160156 124.140625 C 481.160156 163.332031 504.867188 395.828125 538.730469 511.28125 C 455.671875 424.230469 266.183594 287.445312 232.238281 267.851562 C 186.757812 241.59375 128.601562 257.175781 102.335938 302.65625 C 76.078125 348.144531 91.667969 406.300781 137.148438 432.554688 C 171.085938 452.152344 384.289062 547.867188 501.210938 576.265625 C 384.289062 604.675781 171.085938 700.390625 137.148438 719.984375 C 91.667969 746.242188 76.078125 804.398438 102.335938 849.878906 C 128.601562 895.359375 186.757812 910.949219 232.238281 884.691406 C 266.183594 865.085938 455.671875 728.3125 538.730469 641.25 C 504.867188 756.710938 481.160156 989.210938 481.160156 1028.402344 C 481.160156 1080.914062 523.734375 1123.492188 576.25 1123.492188 C 628.761719 1123.492188 671.339844 1080.914062 671.339844 1028.402344 C 671.339844 989.210938 647.628906 756.710938 613.769531 641.25 C 696.828125 728.3125 886.316406 865.085938 920.257812 884.691406 C 965.738281 910.949219 1023.894531 895.359375 1050.152344 849.878906 C 1076.417969 804.398438 1060.835938 746.242188 1015.347656 719.984375 C 981.414062 700.390625 768.207031 604.675781 651.285156 576.265625 C 768.207031 547.867188 981.414062 452.152344 1015.347656 432.554688 C 1060.835938 406.300781 1076.417969 348.144531 1050.152344 302.65625 " fill-opacity="1" fill-rule="nonzero"/></g></svg>